<?xml version="1.0" encoding="UTF-8" standalone="no"?>
<!-- Generator: Adobe Illustrator 27.9.5, SVG Export Plug-In . SVG Version: 9.03 Build 54986)  -->

<svg
   version="1.1"
   x="0px"
   y="0px"
   viewBox="0 0 256 96"
   xml:space="preserve"
   id="svg14"
   width="256"
   height="96"
   xmlns="http://www.w3.org/2000/svg"
   xmlns:svg="http://www.w3.org/2000/svg"><defs
   id="defs14" />
<style
   type="text/css"
   id="style1">
	.st0{display:none;}
	.st1{fill:#FFFFFF;}
</style>

<g
   id="art"
   transform="matrix(0.97229046,0,0,1.0389549,-9.6314488,-63.224333)">
	<path
   d="m 153.19,130.72 c 4.28,-0.39 9.63,-1.66 13.3,-2.26 4.46,-0.73 6.6,-1.28 11.85,-1.59 3.58,-0.21 6.99,-2.51 9.97,-1.59 6.3,1.95 5.34,4.24 13.54,7.04 4.28,1.46 4.46,2.18 7.25,2.51 3.54,0.42 4.41,-0.61 8.92,-0.56 3.45,0.04 5.99,0.67 8.92,1.39 4.77,1.18 7.15,1.77 8.92,3.35 1.88,1.67 1.5,2.53 5.02,6.69 2.56,3.03 3.49,3.44 4.18,3.63 2.33,0.62 5.18,-0.47 6.69,-2.51 2.51,-3.4 0.44,-4.34 -2.12,-7.12 -3.81,-4.13 -5.1,-6.07 -4.85,-7.38 0.29,-1.53 7.39,-2.98 12.55,0 2.03,1.17 2.39,2.25 5.3,3.63 2.21,1.05 4.86,2.3 6.97,1.12 1.68,-0.94 2.57,-3.01 2.51,-4.74 -0.03,-0.93 -0.63,-2.44 -7.25,-6.41 -3.17,-1.9 -4.73,-2.9 -6.69,-3.63 -3.45,-1.27 -5.05,-1 -10.88,-1.95 -5.7,-0.93 -6.67,-0.62 -8.09,-1.67 -2.24,-1.67 -2.25,-4.69 -1.16,-7.42 1.11,-2.76 2.86,-3.86 3.67,-4.01 3.29,-0.64 4.68,0.8 11.16,2.23 2.84,0.63 4.99,1.1 7.81,1.12 3.66,0.02 6.17,0.1 8.36,-3.53 2.8,-4.64 4.45,-7.68 4.12,-9.26 -0.65,-3.05 -2.37,-2.01 -4.11,-5.34 -1.78,-3.4 0.48,-7.36 -1.63,-9.03 -2.57,-2.03 -3.44,-1.69 -7.64,-5.42 -1.76,-1.57 -3.86,-1.33 -4.15,-2.18 -1.12,-3.34 0.83,-14.59 -0.76,-14.96 -2,-0.47 -10.48,9.42 -12.55,10.73 -2.44,1.54 -1.54,1.34 -7.3,1.06 -2.36,-0.11 -11.15,1.05 -14.22,1.95 -4.37,1.28 -4.34,0.58 -7.33,1.37 -6.01,1.58 -8.85,0.37 -15.82,-0.81 -3.95,-0.67 -8.49,0.02 -17.57,1.39 -1.76,0.27 -6.98,-0.92 -8.33,-0.96 -7.88,-0.28 -12.64,0.04 -19.85,0.13 -1.48,0.02 -2.96,0.09 -4.43,0.2 l -8.44,0.65 -4.83,0.29 c -3.59,0.21 -8.8,1.06 -11.73,1.18 -18.16,0.72 -25.87,3.65 -32.14,5.54 -5.84,1.76 -11.97,3.37 -14.3,4.05 -2.81,0.82 -5.23,1.56 -16.94,5.15 -7.29,2.23 -15.74,4.34 -18.44,5.03 -3.6,0.91 -9.09,3.21 -12.04,4.31 -3.42,1.27 -9.19,2.49 -14.42,6.28 -2.36,1.71 -3.58,2.92 -4.25,5.91 -0.29,1.28 1.34,3.94 2.3,4.41 2.14,1.04 4.53,-0.35 8.92,-2.51 0,0 -3.53,1.71 5.25,-2.27 4.4,-2 6.46,-2.6 9.26,-3.59 5.37,-1.89 8.18,-2.5 16.73,-4.74 13.61,-3.56 20.42,-5.34 22.59,-6.14 8.71,-3.19 10.89,-4.68 14.43,-3.9 2.96,0.65 1.84,1.39 0.05,3.27 -1.62,1.7 -4.74,3.97 -5.84,4.81 -1.52,1.17 -3.52,1.95 -4.74,2.56 -1.67,0.85 -5.3,2.9 -6.7,3.57 -1.5,0.72 -2.7,1.49 -3.63,1.95 -1.48,0.74 -4.79,1.95 -5.86,2.23 -2.15,0.57 -2.58,-0.74 -4.74,-0.56 -1.73,0.15 -2.87,0.83 -4.74,1.95 -2.97,1.77 -5.96,3.52 -8.92,5.3 -2.23,1.34 -3.81,2.19 -6.97,3.9 -2.51,1.36 -5.1,2.76 -8.65,4.46 -4.45,2.14 -6.68,3.21 -8.09,3.63 -3.96,1.17 -6.59,1.07 -7.25,2.79 -0.37,0.97 0.04,2.11 0.56,2.79 1.03,1.36 2.99,1.6 6.69,1.39 7.63,-0.42 10.56,-0.63 14.5,-2.79 3.37,-1.84 3.56,-4.04 7.25,-5.3 1.37,-0.47 3.74,-1.03 4.18,-0.28 0.42,0.7 -1.05,2.27 -3.63,5.02 -2.07,2.21 -3.1,3.31 -4.74,4.46 -1.32,0.93 -2.83,1.64 -5.86,3.07 -3,1.42 -4.28,1.85 -5.86,3.35 -0.94,0.89 -2.18,2.08 -1.95,3.35 0.3,1.68 2.97,2.41 3.35,2.51 2.6,0.71 5.23,-0.1 10.04,-2.79 3.83,-2.14 6.96,-3.87 11.16,-7.53 6.15,-5.36 5.78,-7.14 9.48,-8.65 1.42,-0.58 2.82,-0.86 11.99,-0.56 9.47,0.32 8.61,0.64 11.71,0.56 6.14,-0.17 10.81,-1.49 18.41,-3.63 6.43,-1.81 5.53,-2.36 10.74,-2.28 7.3,0.11 4.81,1.56 10.71,2.28 6.15,0.75 14.92,1.62 17.45,1.29"
   id="path1" />
</g>
<g
   id="Layer_4"
   transform="matrix(0.97229046,0,0,1.0389549,-9.6314488,-63.224333)">
	<path
   class="st1"
   d="m 261.01,90.49 c -0.63,-0.15 -0.94,-0.09 -2.13,0.22 -1.53,0.4 -2.75,0.59 -2.83,0.93 -0.14,0.57 0.95,1.37 1.85,1.69 0.11,0.04 1.92,0.65 3.05,-0.38 0.16,-0.15 0.7,-0.64 0.65,-1.36 -0.02,-0.4 -0.15,-1 -0.59,-1.1 z"
   id="path2" />
</g>
<g
   id="txt"
   transform="matrix(0.97229046,0,0,1.0389549,-9.6314488,-63.224333)">
	<g
   id="g12">
		<g
   id="g11">
			<path
   class="st1"
   d="m 116.97,82.9 c 2.15,-0.15 4.3,-0.3 6.45,-0.43 4.3,-0.27 7.17,-0.34 8.6,-0.26 1.43,0.08 2.44,0.44 3.03,1.07 0.59,0.63 0.47,1.68 -0.35,3.14 -0.75,1.34 -1.58,2.26 -2.52,2.75 -0.93,0.49 -2.42,0.83 -4.45,1.02 1.68,0.13 2.72,0.37 3.14,0.71 0.41,0.34 0.61,0.66 0.59,0.96 -0.02,0.3 -0.41,1.15 -1.18,2.53 -0.84,1.51 -1.67,3.02 -2.5,4.52 -2.8,0.12 -5.6,0.23 -8.4,0.35 1.04,-1.88 2.08,-3.76 3.13,-5.65 0.51,-0.91 0.67,-1.47 0.5,-1.68 -0.17,-0.2 -0.89,-0.27 -2.14,-0.21 -1.42,2.57 -2.83,5.12 -4.24,7.65 -3.01,0.13 -6.03,0.26 -9.04,0.39 3.1,-5.5 6.23,-11.14 9.38,-16.86 z m 7.48,2.35 c -0.7,1.28 -1.41,2.55 -2.11,3.82 1.02,-0.06 1.78,-0.16 2.26,-0.32 0.49,-0.16 0.94,-0.62 1.36,-1.38 0.17,-0.32 0.35,-0.63 0.52,-0.95 0.3,-0.55 0.3,-0.89 0,-1.04 -0.3,-0.14 -0.98,-0.19 -2.03,-0.13 z"
   id="path3" />
			<path
   class="st1"
   d="m 156,90.91 c -0.98,1.71 -1.75,2.92 -2.32,3.64 -0.57,0.72 -1.46,1.39 -2.66,2.01 -1.2,0.62 -2.63,1.12 -4.29,1.49 -1.66,0.37 -3.47,0.6 -5.43,0.68 -1.86,0.07 -3.45,-0.01 -4.77,-0.25 -1.32,-0.24 -2.26,-0.64 -2.83,-1.21 -0.57,-0.56 -0.75,-1.2 -0.53,-1.9 0.22,-0.7 0.82,-1.94 1.8,-3.71 0.54,-0.98 1.09,-1.96 1.64,-2.95 0.96,-1.73 1.73,-2.96 2.3,-3.69 0.57,-0.73 1.45,-1.41 2.66,-2.04 1.21,-0.63 2.64,-1.13 4.31,-1.5 1.67,-0.37 3.49,-0.58 5.47,-0.63 1.88,-0.05 3.48,0.07 4.81,0.34 1.33,0.27 2.27,0.69 2.84,1.27 0.57,0.57 0.74,1.2 0.51,1.89 -0.23,0.69 -0.85,1.9 -1.85,3.64 -0.55,0.98 -1.11,1.95 -1.66,2.92 z m -5.92,-5.34 c 0.45,-0.79 0.65,-1.3 0.6,-1.51 -0.05,-0.22 -0.36,-0.32 -0.93,-0.3 -0.48,0.01 -0.89,0.11 -1.25,0.3 -0.35,0.19 -0.78,0.72 -1.28,1.6 -1.51,2.66 -3.01,5.34 -4.5,8.01 -0.56,1 -0.82,1.61 -0.78,1.84 0.03,0.23 0.35,0.33 0.96,0.31 0.62,-0.02 1.09,-0.17 1.41,-0.45 0.32,-0.28 0.77,-0.92 1.33,-1.93 1.48,-2.63 2.96,-5.26 4.44,-7.87 z"
   id="path4" />
			<path
   class="st1"
   d="m 181.46,85.97 c -2.82,-0.02 -5.64,-0.03 -8.46,-0.02 0.24,-0.4 0.49,-0.8 0.73,-1.21 0.34,-0.56 0.45,-0.92 0.33,-1.07 -0.12,-0.15 -0.44,-0.23 -0.94,-0.23 -0.55,0 -1.03,0.1 -1.43,0.31 -0.41,0.21 -0.74,0.53 -1,0.95 -0.33,0.55 -0.42,0.96 -0.27,1.23 0.13,0.28 0.79,0.6 1.97,0.99 3.38,1.1 5.37,2 5.99,2.7 0.62,0.71 0.44,1.84 -0.53,3.43 -0.7,1.16 -1.51,2.02 -2.43,2.59 -0.91,0.57 -2.32,1.06 -4.21,1.49 -1.89,0.43 -3.94,0.68 -6.15,0.75 -2.43,0.08 -4.37,-0.08 -5.83,-0.47 -1.46,-0.39 -2.26,-0.92 -2.39,-1.6 -0.14,-0.68 0.16,-1.65 0.89,-2.92 0.21,-0.37 0.42,-0.74 0.64,-1.11 2.81,-0.08 5.63,-0.14 8.44,-0.2 -0.4,0.68 -0.79,1.35 -1.19,2.03 -0.37,0.63 -0.48,1.03 -0.35,1.2 0.13,0.17 0.5,0.25 1.1,0.24 0.6,-0.02 1.12,-0.14 1.55,-0.37 0.43,-0.23 0.77,-0.57 1.03,-1.02 0.58,-0.98 0.68,-1.61 0.29,-1.9 -0.4,-0.29 -1.52,-0.77 -3.36,-1.43 -1.84,-0.67 -3.04,-1.16 -3.58,-1.47 -0.55,-0.31 -0.89,-0.75 -1.04,-1.31 -0.15,-0.56 0.04,-1.29 0.56,-2.18 0.75,-1.28 1.64,-2.22 2.68,-2.81 1.03,-0.59 2.42,-1.06 4.15,-1.38 1.73,-0.33 3.68,-0.48 5.85,-0.46 2.37,0.03 4.29,0.24 5.74,0.61 1.45,0.38 2.29,0.83 2.5,1.36 0.21,0.53 -0.08,1.42 -0.87,2.67 -0.15,0.2 -0.28,0.4 -0.41,0.61 z"
   id="path5" />
			<path
   class="st1"
   d="m 197.22,81.69 c -3.35,4.88 -6.68,9.99 -9.99,15.28 -3.02,0.06 -6.04,0.13 -9.07,0.2 3.28,-5.44 6.59,-10.74 9.92,-15.84 3.05,0.09 6.09,0.21 9.14,0.36 z"
   id="path6" />
			<path
   class="st1"
   d="m 200.88,81.87 c 5.07,0.27 10.14,0.61 15.21,1.02 -0.68,0.87 -1.36,1.74 -2.03,2.63 -2.03,-0.13 -4.05,-0.24 -6.08,-0.35 -0.64,0.88 -1.28,1.76 -1.92,2.66 1.89,0.07 3.79,0.14 5.68,0.23 -0.64,0.87 -1.28,1.74 -1.92,2.63 -1.89,-0.05 -3.78,-0.09 -5.68,-0.13 -0.74,1.06 -1.47,2.13 -2.21,3.21 2.22,0.01 4.44,0.02 6.66,0.04 -0.67,0.95 -1.34,1.91 -2.01,2.88 -5.24,0.04 -10.47,0.1 -15.71,0.2 3.31,-5.21 6.65,-10.23 10.01,-15.02 z"
   id="path7" />
			<path
   class="st1"
   d="m 104.94,107.33 c 2.12,-0.05 4.25,-0.1 6.37,-0.15 4.25,-0.11 7.08,-0.12 8.5,-0.01 1.42,0.11 2.42,0.48 3,1.11 0.58,0.63 0.47,1.67 -0.32,3.1 -0.73,1.31 -1.55,2.19 -2.47,2.65 -0.92,0.46 -2.38,0.75 -4.4,0.87 1.66,0.19 2.69,0.45 3.1,0.8 0.41,0.35 0.61,0.67 0.59,0.97 -0.02,0.3 -0.4,1.12 -1.15,2.45 -0.82,1.46 -1.63,2.9 -2.45,4.34 -2.77,-0.01 -5.54,-0.04 -8.3,-0.09 1.02,-1.76 2.04,-3.55 3.06,-5.34 0.49,-0.87 0.66,-1.41 0.48,-1.62 -0.17,-0.21 -0.88,-0.31 -2.11,-0.3 -1.39,2.43 -2.77,4.84 -4.15,7.21 -2.98,-0.07 -5.95,-0.16 -8.92,-0.28 3.04,-5.04 6.09,-10.3 9.17,-15.71 z m 7.41,2.61 c -0.69,1.22 -1.38,2.44 -2.06,3.65 1.01,-0.01 1.75,-0.09 2.23,-0.22 0.48,-0.14 0.92,-0.57 1.33,-1.3 0.17,-0.3 0.34,-0.61 0.51,-0.91 0.29,-0.53 0.29,-0.87 -0.01,-1.02 -0.29,-0.15 -0.96,-0.22 -2,-0.2 z"
   id="path8" />
			<path
   class="st1"
   d="m 149.06,105.88 c -2.14,3.83 -4.27,7.67 -6.38,11.5 -0.72,1.3 -1.31,2.22 -1.77,2.76 -0.46,0.53 -1.26,1.09 -2.41,1.68 -1.14,0.58 -2.48,1.04 -4,1.36 -1.53,0.32 -3.22,0.5 -5.07,0.54 -2.06,0.04 -3.78,-0.1 -5.17,-0.42 -1.39,-0.31 -2.33,-0.73 -2.81,-1.25 -0.48,-0.52 -0.63,-1.07 -0.45,-1.66 0.19,-0.59 0.81,-1.82 1.86,-3.71 1.84,-3.31 3.7,-6.65 5.56,-10.01 3.01,-0.1 6.01,-0.21 9.02,-0.32 -2.38,4.29 -4.74,8.57 -7.09,12.81 -0.41,0.74 -0.59,1.21 -0.54,1.41 0.05,0.2 0.32,0.3 0.82,0.29 0.57,-0.01 1,-0.14 1.29,-0.37 0.29,-0.23 0.67,-0.77 1.14,-1.62 2.31,-4.19 4.64,-8.4 6.98,-12.62 3,-0.13 6.01,-0.25 9.02,-0.37 z"
   id="path9" />
			<path
   class="st1"
   d="m 168.75,110.01 c -2.79,0.15 -5.58,0.29 -8.37,0.43 0.24,-0.42 0.48,-0.84 0.72,-1.27 0.33,-0.59 0.44,-0.96 0.32,-1.11 -0.12,-0.15 -0.43,-0.22 -0.93,-0.19 -0.54,0.02 -1.02,0.15 -1.42,0.38 -0.4,0.23 -0.73,0.57 -0.98,1.01 -0.32,0.57 -0.41,0.99 -0.26,1.27 0.13,0.28 0.79,0.58 1.95,0.92 3.35,0.97 5.33,1.79 5.94,2.48 0.61,0.69 0.44,1.87 -0.5,3.55 -0.69,1.22 -1.48,2.14 -2.39,2.76 -0.9,0.62 -2.29,1.18 -4.15,1.67 -1.87,0.5 -3.89,0.81 -6.08,0.93 -2.4,0.13 -4.32,0 -5.77,-0.37 -1.45,-0.38 -2.24,-0.91 -2.38,-1.59 -0.14,-0.68 0.15,-1.66 0.86,-2.96 0.21,-0.38 0.42,-0.75 0.62,-1.13 2.78,-0.12 5.57,-0.25 8.35,-0.39 -0.39,0.7 -0.78,1.4 -1.17,2.1 -0.36,0.65 -0.47,1.06 -0.34,1.23 0.13,0.17 0.5,0.24 1.09,0.21 0.6,-0.03 1.11,-0.17 1.53,-0.42 0.42,-0.25 0.76,-0.61 1.02,-1.07 0.57,-1.02 0.66,-1.66 0.28,-1.94 -0.4,-0.28 -1.51,-0.73 -3.34,-1.35 -1.83,-0.63 -3.01,-1.1 -3.55,-1.4 -0.54,-0.3 -0.89,-0.73 -1.04,-1.3 -0.15,-0.57 0.03,-1.31 0.54,-2.22 0.73,-1.32 1.61,-2.29 2.63,-2.93 1.02,-0.64 2.38,-1.16 4.09,-1.56 1.71,-0.41 3.64,-0.65 5.78,-0.74 2.35,-0.1 4.24,0 5.68,0.3 1.44,0.3 2.27,0.71 2.48,1.24 0.21,0.53 -0.07,1.47 -0.84,2.81 -0.11,0.21 -0.24,0.43 -0.37,0.65 z"
   id="path10" />
			<path
   class="st1"
   d="m 196.06,103.85 c -3.32,5.19 -6.61,10.58 -9.88,16.11 -2.99,0.28 -5.98,0.55 -8.97,0.81 1.36,-2.37 2.73,-4.72 4.1,-7.04 -0.9,0.06 -1.8,0.13 -2.69,0.19 -1.37,2.34 -2.74,4.7 -4.1,7.08 -2.99,0.24 -5.98,0.47 -8.97,0.69 3.22,-5.73 6.46,-11.39 9.73,-16.92 3.01,-0.13 6.02,-0.26 9.04,-0.4 -1.18,1.93 -2.35,3.89 -3.52,5.86 0.9,-0.05 1.8,-0.11 2.7,-0.16 1.17,-1.96 2.35,-3.9 3.53,-5.81 3.01,-0.15 6.02,-0.28 9.03,-0.41 z"
   id="path11" />
		</g>
	</g>
	<g
   id="g14">
		<g
   id="g13">
			<path
   class="st1"
   d="m 199.2,115.8 c -0.66,1.14 -1.31,2.29 -1.97,3.44 -2.05,0.12 -4.1,0.18 -6.15,0.16 0.77,-1.1 1.55,-2.21 2.33,-3.35 1.93,-0.04 3.86,-0.13 5.79,-0.25 z m 10.39,-12.59 c -3.07,3.05 -6.11,6.83 -9.11,10.8 -2.01,0.14 -4.02,0.27 -6.03,0.36 2.19,-3.97 4.41,-7.99 6.66,-11.75 2.84,0.08 5.66,0.27 8.48,0.59 z"
   id="path12" />
		</g>
	</g>
</g>
</svg>
